<?xml version="1.0" standalone="no"?>
<!DOCTYPE svg PUBLIC "-//W3C//DTD SVG 1.1//EN" "http://www.w3.org/Graphics/SVG/1.1/DTD/svg11.dtd" >
<svg xmlns="http://www.w3.org/2000/svg">
<metadata>Generated by IcoMoon</metadata>
<defs>
<font id="icomoon" horiz-adv-x="1024">
<font-face units-per-em="1024" ascent="960" descent="-64" />
<missing-glyph horiz-adv-x="1024" />
<glyph unicode="&#x20;" horiz-adv-x="512" d="" />
<glyph unicode="&#xe900;" glyph-name="bianji" d="M361.711 188.126l-152.337 149.862-95.829-255.522 248.166 105.66zM850.688 667.341l-157.303 162.099-455.782-449.707 163.447-169.506 449.638 457.114zM980.224 791.194c29.577 31.659-15.872 82.108-15.872 82.108s-25.805 34.031-73.677 69.052c-47.889 35.004-84.787 0-84.787 0l-81.050-81.084 164.625-164.011c0-0.017 69.393 69.99 90.761 93.935v0zM33.775 18.961h915.831v-80.879h-915.831v80.879z" />
<glyph unicode="&#xe901;" glyph-name="huiyuanjifen" d="M922.129 912.794h-820.258c-56.030 0-101.649-45.619-101.649-101.649v-522.308c0-56.030 45.619-101.632 101.649-101.632h393.284c11.759-114.534 108.8-203.998 226.304-203.998 118.135 0 215.569 90.453 226.475 205.858 44.373 8.926 75.827 48.828 75.827 99.789v522.291c0 56.047-45.602 101.649-101.632 101.649v0zM50.295 811.145c0 28.399 23.177 51.558 51.558 51.558h820.275c28.399 0 51.558-23.159 51.558-51.558v-59.119h-923.392v59.119zM721.459 33.263c-97.792 0-177.374 79.565-177.374 177.357s79.462 177.493 177.374 177.493c97.792 0 177.408-79.565 177.408-177.357s-79.599-177.493-177.408-177.493v0zM973.705 288.836c0-25.515-12.032-41.028-26.761-47.718-14.831 111.053-110.302 197.086-225.468 197.086-116.497 0-212.685-87.996-225.946-200.926h-393.66c-28.382 0-51.558 23.159-51.558 51.558v288.427h923.392v-288.427zM133.478 304.811h86.647c13.875 0 25.020 11.179 25.020 25.054s-11.145 25.020-25.020 25.020h-86.647c-13.892 0-25.037-11.127-25.037-25.020 0-13.858 11.145-25.054 25.037-25.054v0zM325.461 304.811h107.708c13.875 0 25.054 11.179 25.054 25.054s-11.196 25.020-25.054 25.020h-107.708c-13.875 0-25.037-11.127-25.037-25.020 0.017-13.858 11.179-25.054 25.037-25.054v0zM722.5 235.691h-1.041c-27.904 0-42.274 8.26-46.063 15.462-1.041 1.877-1.997 4.813 0.836 9.062 5.239 7.663 21.299 15.616 49.203 12.493 14.541-1.604 29.764-6.69 47.599-12.629l3.499-1.126c13.141-4.318 27.273 2.765 31.573 15.872 4.369 13.158-2.697 27.29-15.872 31.642l-3.43 1.075c-14.404 4.864-28.297 9.455-42.428 12.425v28.877c0 13.875-11.127 25.054-25.003 25.054s-25.071-11.179-25.071-25.054v-26.402c-26.863-3.499-48.794-15.36-61.474-33.963-12.629-18.586-13.995-41.284-3.703-60.757 14.234-26.743 47.104-42.121 90.334-42.121h1.041c26.999 0 40.994-8.414 44.834-15.616 1.741-3.226 1.502-6.315-0.734-9.557-5.069-7.458-20.702-15.138-48.196-12.015-14.404 1.604-29.628 6.69-47.275 12.476l-3.703 1.28c-13.141 4.318-27.273-2.731-31.607-15.872-4.335-13.158 2.731-27.29 15.872-31.642l3.738-1.229c13.995-4.591 27.375-9.045 41.028-12.015v-29.013c0-13.875 11.127-25.020 25.003-25.020 13.892 0 25.071 11.145 25.071 25.020v26.283c26.863 3.345 48.93 15.002 61.474 33.604 12.629 18.586 13.995 41.506 3.601 61.218-6.844 12.646-29.013 42.189-89.105 42.189v0z" />
<glyph unicode="&#xe902;" glyph-name="jifenmingxi" d="M864.939-18.688c-5.274-6.281-13.568-9.097-21.589-7.373-7.987 1.758-14.37 7.799-16.555 15.684-2.185 7.902 0.188 16.367 6.127 21.948 94.157 99.311 146.517 231.049 146.295 367.923 0.068 295.407-240.316 535.74-535.757 535.74-11.742 0.614-20.924 10.308-20.924 22.033 0 11.742 9.182 21.436 20.924 22.033 319.761 0 579.84-260.13 579.84-579.806 0-148.736-56.218-290.116-158.362-398.182v0zM877.158 374.938c0-241.647-196.608-438.238-438.272-438.238-241.579 0-438.204 196.591-438.204 438.238 0 241.613 196.625 438.255 438.204 438.255 241.715-0.017 438.272-196.642 438.272-438.255v0zM634.129 144.674l63.147 39.049c-29.218 49.664-60.928 97.809-94.993 144.316l-57.532-31.846c27.409-41.114 57.173-91.614 89.378-151.518v0zM411.221 143.667c34.253 41.404 68.83 91.733 103.765 150.972l-62.686 32.358c-31.13-59.221-64.529-106.274-100.13-141.227 21.897-14.711 41.609-28.774 59.051-42.103v0zM388.147 503.159h-63.198v65.468c20.258 2.645 40.482 5.615 60.604 8.994l-15.411 60.075c-63.334-8.909-123.972-16.077-181.794-21.555 4.437-17.493 8.38-37.854 11.776-61.15 20.378 1.877 39.714 3.874 58.010 5.905v-57.737h-70.349v-66.287h68.83c-17.664-48.777-42.155-92.075-73.455-129.911 8.482-27.204 16.367-54.613 23.62-82.193 19.661 28.484 36.83 58.539 51.337 89.924v-168.994h66.799v200.55c11.981-13.193 25.498-28.501 40.567-45.978l41.097 40.602c-20.139 20.599-41.045 40.465-62.652 59.563l-19.012-19.524v55.962h63.198v66.287zM406.084 345.993h260.915v275.285h-260.915v-275.285zM475.938 556.561h121.19v-145.835h-121.19v145.835z" />
<glyph unicode="&#xe903;" glyph-name="chuzhimingxi" d="M1.877 605.542l491.776-610.372-197.171 610.372h-294.605zM349.901 605.542l174.182-611.635 149.777 611.635h-323.959zM550.537-4.813l473.395 610.372h-292.233l-181.163-610.372zM1025.092 645.444l-141.961 242.722-141.995-242.722h283.955zM838.502 902.076h-283.904l141.892-251.034 142.012 251.034zM652.868 645.444l-141.961 242.722-141.943-242.722h283.904zM469.402 902.076h-283.955l142.012-251.034 141.943 251.034zM140.868 888.166l-141.961-242.722h283.972l-142.012 242.722z" />
<glyph unicode="&#xe904;" glyph-name="youhuiquan" d="M1019.836 581.598v209.015h-1015.671v-209.033c75.213 0 136.277-59.785 136.277-133.598 0-73.762-61.065-133.598-136.277-133.598v-209.015h1015.671v209.033c-75.281 0-136.294 59.836-136.294 133.598 0 73.813 61.013 133.598 136.294 133.598v0zM658.756 468.617v-48.964h-114.261v-68.062h114.261v-49.271h-114.261v-97.86h-62.396v97.86h-117.777v49.271h117.777v68.079h-117.777v48.964h99.226l-121.327 221.764h71.407l84.838-172.817c4.642-9.643 10.018-21.897 15.957-36.727h1.314c4.267 11.93 9.813 24.678 16.64 38.281l85.129 171.264h66.901l-122.897-221.764h97.246z" />
<glyph unicode="&#xe905;" glyph-name="dazhuanpan" d="M414.737 41.079c-229.786 0-416.205 186.436-416.205 416.222s186.419 416.205 416.205 416.205c229.803 0 416.205-186.419 416.205-416.205s-186.402-416.222-416.205-416.222v0zM610.509 653.107l-195.772-195.806v276.685c-76.203 0-144.777-30.498-195.209-80.316l195.209-196.369h-277.282c0-76.203 30.481-144.777 80.316-195.209l196.966 195.209v-277.282c76.203 0 144.794 30.481 195.209 80.316l-195.209 196.966h277.265c0 76.203-31.061 145.374-81.493 195.806v0zM637.491 871.748c143.65-79.735 240.93-232.738 240.93-408.593s-97.28-328.26-241.51-408.576c215.142 12.902 385.741 190.532 385.741 408.576-0.017 217.481-170.018 395.11-385.161 408.593v0z" />
<glyph unicode="&#xe906;" glyph-name="wodecaifu" d="M385.894 694.972h239.172c74.001 0 130.475 160.495 130.475 160.495 0 48.060-4.796 84.412-87.006 86.989-82.142 2.577-101.837-57.446-160.87-57.446-60.518 0-90.795 47.206-165.257 57.446-74.445 10.308-86.972-38.929-86.972-86.989 0 0 56.422-160.495 130.458-160.495v0zM638.14 645.359h-252.245c-279.296 0-347.887-548.727-347.887-548.727 0-72.090 58.419-144.469 130.458-144.469h687.070c72.073 0 130.475 72.38 130.475 144.469-0.017 0-68.642 548.727-347.87 548.727v0zM666.761 223.642c16.794 0 30.43-13.653 30.43-30.481 0-16.811-13.636-30.481-30.43-30.481h-123.665v-79.991c0-16.828-13.67-30.481-30.464-30.481-16.828 0-30.464 13.653-30.464 30.481v79.991h-124.467c-16.828 0-30.464 13.67-30.464 30.481 0 16.828 13.636 30.481 30.464 30.481h124.467v38.673h-124.467c-8.090 0-15.838 3.209-21.538 8.926-5.717 5.717-8.926 13.466-8.926 21.538 0 16.828 13.636 30.515 30.464 30.515h84.139l-86.153 153.105c-8.414 14.575-3.43 33.212 11.145 41.626 14.558 8.414 33.178 3.447 41.609-11.11l103.731-183.62h5.257l103.714 183.62c4.062 6.997 10.701 12.083 18.5 14.182 7.799 2.082 16.094 0.99 23.108-3.055 6.997-4.028 12.1-10.684 14.199-18.5s1.007-16.128-3.038-23.125l-86.135-153.105h79.002c16.794 0 30.464-13.687 30.464-30.515 0-16.811-13.67-30.464-30.464-30.464h-123.665v-38.69h123.648z" />
<glyph unicode="&#xe907;" glyph-name="y" d="M774.605 483.209l-459.571 460.425c-18.142 18.159-47.548 18.159-65.673 0s-18.125-47.616 0-65.775l429.124-429.875-429.124-429.858c-18.125-18.176-18.125-47.599 0-65.775 18.142-18.159 47.548-18.159 65.673 0l459.571 460.425c9.677 9.66 14.046 22.528 13.414 35.209 0.631 12.681-3.738 25.549-13.414 35.226z" />
<glyph unicode="&#xe908;" glyph-name="rili" d="M209.425 737.843h75.23c11.298 0 20.599 9.267 20.599 20.565v165.461c0 11.298-9.301 20.565-20.599 20.565h-75.23c-11.418 0-20.565-9.267-20.565-20.565v-165.444c0-11.315 9.148-20.582 20.565-20.582zM739.379 737.843h75.23c11.383 0 20.582 9.267 20.582 20.565v165.461c0 11.298-9.199 20.565-20.582 20.565h-75.23c-11.332 0-20.668-9.267-20.668-20.565v-165.444c0-11.315 9.335-20.582 20.668-20.582zM903.219 865.314h-26.453v-106.906c0-34.202-27.87-62.208-62.157-62.208h-75.23c-34.15 0-62.191 28.006-62.191 62.208v106.906h-330.428v-106.906c0-34.202-27.87-62.208-62.106-62.208h-75.23c-34.253 0-62.174 28.006-62.174 62.208v106.906h-26.692c-65.929 0-119.569-53.623-119.569-119.603v-674.372c0-66.15 53.641-119.791 119.569-119.791h782.643c66.082 0 119.791 53.641 119.791 119.791v674.372c0 65.997-53.692 119.603-119.774 119.603zM947.2 71.356c0-24.337-19.712-43.998-43.981-43.998h-782.66c-24.115 0-43.776 19.661-43.776 43.998v452.25h870.4v-452.25z" />
<glyph unicode="&#xe909;" glyph-name="tb" d="M217.873 696.764c12.527-12.527 32.768-12.527 45.312 0 12.527 12.544 12.527 32.751 0 45.278l-67.823 67.84c-12.527 12.527-32.768 12.527-45.312 0-12.527-12.544-12.527-32.768 0-45.312l67.823-67.806zM819.695 710.946l67.277 67.226c12.356 12.373 12.356 32.444 0 44.851-12.442 12.373-32.495 12.373-44.902 0l-67.226-67.226c-12.356-12.373-12.356-32.427 0-44.851 12.356-12.39 32.512-12.39 44.851 0v0zM511.915 799.898c17.681 0 32.051 14.353 32.051 32.034v95.898c0 17.681-14.387 32.034-32.051 32.034s-32.017-14.353-32.017-32.034v-95.898c-0.017-17.681 14.353-32.034 32.017-32.034v0zM127.983 480.051h-95.881c-17.681 0-32.051-14.387-32.051-32 0-17.715 14.37-32.102 32.051-32.102h95.881c17.681 0 32.017 14.387 32.017 32.102 0 17.613-14.336 32-32.017 32v0zM511.915 736.034c-159.181 0-288.154-128.99-288.154-288.171 0-159.215 128.973-288.188 288.154-288.188 159.164 0 288.188 128.973 288.188 288.188 0 159.181-129.041 288.171-288.188 288.171v0zM991.949 480.051h-95.983c-17.647 0-32-14.387-32-32 0-17.715 14.353-32.102 32-32.102h95.983c17.647 0 32 14.387 32 32.102-0.188 17.613-14.353 32-32 32v0zM805.956 199.083c-12.476 12.527-32.734 12.527-45.261 0-12.51-12.527-12.51-32.785 0-45.295l67.84-67.789c12.527-12.527 32.768-12.527 45.295 0s12.527 32.734 0 45.295l-67.874 67.789zM237.175 217.958l-67.209-67.191c-12.373-12.407-12.373-32.461 0-44.902 12.39-12.356 32.495-12.356 44.868 0l67.191 67.191c12.39 12.442 12.39 32.512 0 44.902-12.51 12.407-32.614 12.407-44.851 0v0zM511.915 96.085c-17.664 0-32.017-14.353-32.017-31.966v-95.966c0-17.664 14.37-32.017 32.017-32.017 17.681 0 32.051 14.353 32.051 32.017v95.966c0 17.613-14.387 31.966-32.051 31.966v0z" />
<glyph unicode="&#xe90a;" glyph-name="erweima" d="M2.406-46.165h463.292v463.258h-463.292v-463.258zM95.044 324.471h277.965v-277.982h-277.965v277.982zM187.716 139.145h92.655v92.655h-92.655v-92.655zM187.716 664.201h92.655v92.655h-92.655v-92.655zM2.406 478.891h463.292v463.275h-463.292v-463.275zM95.044 849.493h277.965v-277.965h-277.965v277.965zM558.336 942.165v-463.275h463.275v463.275h-463.275zM928.956 571.529h-277.965v277.965h277.965v-277.965zM558.336-46.165h463.275v463.258h-463.275v-463.258zM650.991 324.471h277.965v-92.672h-185.31v-92.655h185.293v-92.672h-277.948v277.999zM836.301 756.855h-92.655v-92.655h92.655v92.655z" />
<glyph unicode="&#xe90b;" glyph-name="tu" d="M943.275 838.639h-862.532c-44.919 0-81.476-37.871-81.476-84.412v-612.42c0-46.575 36.557-84.429 81.476-84.429h862.532c44.902 0 81.459 37.871 81.459 84.429v612.403c0 46.558-36.574 84.429-81.459 84.429zM983.467 141.807c0-23.006-18.005-41.66-40.192-41.66h-862.532c-22.187 0-40.226 18.671-40.226 41.66v612.403c0 22.989 18.057 41.66 40.226 41.66h862.532c22.204 0 40.192-18.688 40.192-41.66v-612.403zM623.701 567.603c47.633 0 86.409 40.158 86.409 89.498s-38.758 89.481-86.409 89.481-86.374-40.141-86.374-89.481 38.741-89.498 86.374-89.498zM623.701 703.829c24.9 0 45.141-20.958 45.141-46.729s-20.241-46.746-45.141-46.746c-24.866 0-45.107 20.975-45.107 46.746s20.241 46.729 45.107 46.729zM766.43 393.148c-4.062 4.25-9.472 6.315-14.763 6.263-5.359 0.051-10.701-2.014-14.763-6.263l-99.226-102.793c-0.239-0.222-0.427-0.478-0.666-0.683l-228.813 237.056c-4.096 4.25-9.506 6.315-14.865 6.246-5.359 0.068-10.752-1.997-14.865-6.246l-287.198-297.54c-8.055-8.329-8.055-21.862 0-30.225 8.073-8.346 21.129-8.346 29.167 0l272.896 282.743 325.308-337.033c8.073-8.363 21.129-8.363 29.167 0 8.073 8.329 8.073 21.862 0 30.208l-81.664 84.651c0.205 0.205 0.461 0.375 0.7 0.614l84.838 87.893 148.292-153.668c8.073-8.363 21.129-8.363 29.167 0 8.073 8.346 8.073 21.862 0 30.225l-162.714 168.55z" />
<glyph unicode="&#xe90c;" glyph-name="daijinquan" d="M1024.051 574.942c0 0-26.556 28.433-26.556 42.837 0 14.438 9.028 20.463 9.028 20.463h-874.667c-72.841 0-131.908-54.409-131.908-121.498v-459.025c0-67.106 59.051-121.463 131.908-121.463h876.663c0 0-10.718 25.139-11.025 38.827-0.375 14.404 26.556 42.837 26.556 42.837v42.837c0 0-26.556 28.433-26.556 42.837 0 14.438 26.556 42.871 26.556 42.871v42.837c0 0-26.556 28.433-26.556 42.871 0 14.404 26.556 42.837 26.556 42.837v42.871c0 0-26.556 28.433-26.556 42.837 0 14.438 26.556 42.871 26.556 42.871v42.837c0 0-26.556 28.433-26.556 42.837 0 14.421 26.556 42.854 26.556 42.854v42.82zM951.791 532.105c0 0-26.539-28.433-26.539-42.854 0-14.404 26.539-42.837 26.539-42.837v-42.837c0 0-26.539-28.433-26.539-42.871 0-14.404 26.539-42.837 26.539-42.837v-42.871c0 0-26.539-28.433-26.539-42.837 0-14.438 26.539-42.871 26.539-42.871v-42.837c0 0-26.539-28.433-26.539-42.871 0-14.404 26.539-42.837 26.539-42.837v-44.629l-8.687-24.303h-819.012c-28.604 0-63.983 38.537-63.983 82.005v458.394c1.502 18.091 24.832 50.637 48.179 50.637l843.503 0.188v-50.927zM272.947 200.806v-0.273c-12.442 0-22.528-10.103-22.528-22.528 0-12.459 10.086-22.528 22.528-22.528v-0.341h107.127v-90.761h0.614c-0.375-1.86-0.597-3.772-0.597-5.769 0-15.599 12.681-28.262 28.314-28.262s28.314 12.663 28.314 28.262c0 1.997-0.205 3.908-0.597 5.769h0.717v90.761h103.919v0.341h0.051c12.442 0 22.545 10.069 22.545 22.528 0 12.442-10.103 22.528-22.545 22.528 0 0-0.034-0.034-0.051-0.034v0.307h-103.919v63.164h103.919v0.307h0.051c12.442 0 22.545 10.103 22.545 22.528 0 12.459-10.103 22.528-22.545 22.528h-88.542l97.075 178.603-0.051 0.017c3.55 4.813 5.7 10.701 5.7 17.135 0 16.060-13.022 29.082-29.099 29.082-12.544 0-23.159-8.004-27.221-19.183h-0.222c0 0-83.917-163.806-87.808-174.848h-1.161c-5.427 13.773-91.699 174.848-91.699 174.848h-0.222c-3.942 11.145-14.455 19.183-26.982 19.183-15.872 0-28.723-12.851-28.723-28.689 0-5.956 1.809-11.469 4.898-16.043l-0.137-0.085 96.563-180.019h-90.249c-12.442 0-22.528-10.069-22.528-22.528 0-12.442 10.086-22.528 22.528-22.528v-0.307h107.127v-63.164h-107.11zM733.628 455.049c17.118 0 30.959 11.383 30.959 25.446v37.973c0 14.063-13.858 25.446-30.959 25.446s-30.976-11.383-30.976-25.446v-37.973c0-14.063 13.858-25.446 30.976-25.446zM733.628 314.795c17.118 0 30.959 11.366 30.959 25.429v38.007c0 14.029-13.858 25.429-30.959 25.429s-30.976-11.401-30.976-25.429v-38.007c0-14.063 13.858-25.429 30.976-25.429zM733.628 174.541c17.118 0 30.959 11.401 30.959 25.429v37.973c0 14.063-13.858 25.463-30.959 25.463s-30.976-11.401-30.976-25.463v-37.973c0-14.029 13.858-25.429 30.976-25.429zM733.628 34.236c17.118 0 30.959 11.435 30.959 25.463v37.973c0 14.063-13.858 25.463-30.959 25.463s-30.976-11.401-30.976-25.463v-37.973c0-14.029 13.858-25.463 30.976-25.463zM238.711 745.489c7.817 16.384 38.332 30.976 60.143 22.716l239.479-90.829h178.79l-380.297 144.316c-68.096 25.839-142.626-4.045-166.468-66.782l-29.457-77.534h71.919l25.89 68.113zM470.374 887.552c12.902 12.749 46.558 16.162 64.29 0.99l202.479-173.244 101.222-37.939h40.653l-290.526 248.678c-55.33 47.36-135.578 44.442-179.251-6.502l-52.77-61.594 66.987-25.122 46.916 54.733z" />
<glyph unicode="&#xe90d;" glyph-name="dd" d="M124.279 566.204c-68.932 0-124.809-55.876-124.809-124.809 0-68.949 55.876-124.809 124.809-124.809s124.809 55.859 124.809 124.809c0 68.932-55.876 124.809-124.809 124.809zM512.563 566.204c-68.932 0-124.809-55.876-124.809-124.809 0-68.949 55.876-124.809 124.809-124.809s124.809 55.859 124.809 124.809c0 68.932-55.876 124.809-124.809 124.809zM900.847 566.204c-68.949 0-124.809-55.876-124.809-124.809 0-68.949 55.859-124.809 124.809-124.809 68.932 0 124.809 55.859 124.809 124.809 0 68.932-55.876 124.809-124.809 124.809z" />
<glyph unicode="&#xe90e;" glyph-name="shenfenzheng" d="M998.588 604.245c-12.407 0-21.658-9.284-21.658-21.692v-434.739c0-55.723-44.902-100.557-100.591-100.557h-730.249c-55.706 0-100.574 44.834-100.574 100.557v583.287c0 55.723 44.851 100.591 100.574 100.591h728.73c55.689 0 100.591-44.851 100.591-100.591 0-12.356 9.233-21.641 21.641-21.641 12.339 0 21.658 9.284 21.658 21.641 0 78.916-63.471 142.336-142.336 142.336h-730.283c-78.916 0-142.336-63.42-142.336-142.336v-583.27c0-78.899 63.42-142.336 142.336-142.336h730.266c78.865 0 142.336 63.437 143.872 142.336v434.739c-0.017 12.39-9.25 21.675-21.641 21.675zM173.926 248.388h267.674v47.991h-267.674v-47.991zM441.6 466.534h-267.674v-49.527h267.674v49.527zM441.6 635.204h-267.674v-47.991h267.674v47.991zM514.321 271.599c0-13.926 10.82-24.764 24.764-24.764 13.926 0 24.713 10.837 24.713 24.764 0 66.543 54.153 120.678 120.695 120.678 66.526 0 120.678-54.135 120.678-120.678 0-13.926 10.786-24.764 24.73-24.764 13.926 0 24.781 10.837 24.781 24.764-1.536 66.543-40.26 122.231-94.413 150.084 26.334 21.641 43.366 55.723 43.366 92.843 0 66.492-54.153 120.678-120.695 120.678-66.526 0-120.678-54.187-120.678-120.678 0-37.12 17.015-69.632 43.366-92.843-54.221-27.853-91.307-85.111-91.307-150.084zM682.957 587.23c40.209 0 72.721-32.495 72.721-72.704 0-40.243-32.495-72.755-72.721-72.755-40.192 0-72.704 32.512-72.704 72.755 0 40.192 32.495 72.704 72.704 72.704z" />
<glyph unicode="&#xe90f;" glyph-name="shengri" d="M996.864 57.242h-71.595v415.693c0 29.662-24.252 53.794-53.879 53.794h-699.426c-29.662 0-53.897-24.132-53.897-53.794v-415.676h-85.487c-16.128 0-29.252-13.073-29.252-29.201 0-16.094 13.124-29.218 29.252-29.218h964.284c16.23 0 29.286 13.124 29.286 29.218 0 16.128-13.056 29.184-29.286 29.184v0 0zM864.734 57.242h-686.131v274.057c3.345-6.144 6.775-13.056 10.428-20.548 17.033-34.987 38.161-78.66 85.794-78.66 47.684 0 68.813 43.691 85.811 78.575 13.807 28.587 24.627 48.691 37.683 48.691 13.022 0 23.842-20.105 37.683-48.606 16.913-34.987 38.127-78.66 85.726-78.66 47.65 0 68.864 43.691 85.879 78.66 13.773 28.501 24.627 48.606 37.734 48.606 13.090 0 23.91-20.105 37.751-48.691 16.964-34.987 38.178-78.575 85.862-78.575s68.813 43.691 85.862 78.66c3.43 7.117 6.758 13.756 9.916 19.644v-273.152zM864.734 406.562c-28.962-12.971-44.732-45.466-58.027-72.772-13.875-28.553-24.593-48.674-37.751-48.674-13.141 0-23.962 20.122-37.786 48.674-16.964 35.038-38.195 78.626-85.828 78.626-47.718 0-68.881-43.605-85.828-78.626-13.824-28.553-24.559-48.674-37.769-48.674-13.056 0-23.791 20.122-37.632 48.674-17.015 35.038-38.127 78.626-85.76 78.626-47.599 0-68.813-43.605-85.811-78.626-13.807-28.553-24.678-48.674-37.683-48.674-13.107 0-23.842 20.122-37.683 48.674-13.312 27.46-29.286 60.194-58.539 73.062v53.589h686.131v-53.879h-0.034zM323.823 815.684c14.268 0 25.907 11.52 25.907 25.839v25.139c0 14.217-11.622 25.839-25.907 25.839-14.302 0-25.975-11.605-25.975-25.839v-25.139c0-14.319 11.674-25.839 25.975-25.839v0zM323.823 773.41c-12.578 0-22.767-10.206-22.767-22.682v-191.351c0-12.51 10.189-22.682 22.767-22.682 12.51 0 22.699 10.155 22.699 22.682v191.369c0 12.476-10.189 22.665-22.699 22.665v0zM515.977 815.684c14.268 0 25.907 11.52 25.907 25.839v25.139c0 14.217-11.639 25.839-25.907 25.839-14.319 0-25.941-11.605-25.941-25.839v-25.139c0-14.319 11.639-25.839 25.941-25.839v0zM515.977 773.41c-12.578 0-22.767-10.206-22.767-22.682v-191.351c0-12.51 10.189-22.682 22.767-22.682 12.544 0 22.699 10.155 22.699 22.682v191.369c0 12.476-10.138 22.665-22.699 22.665v0zM708.147 815.684c14.285 0 25.907 11.52 25.907 25.839v25.139c0 14.217-11.622 25.839-25.907 25.839-14.302 0-25.975-11.605-25.975-25.839v-25.139c0-14.319 11.674-25.839 25.975-25.839v0zM708.147 773.41c-12.578 0-22.784-10.206-22.784-22.682v-191.351c0-12.51 10.206-22.682 22.784-22.682 12.493 0 22.682 10.155 22.682 22.682v191.369c0 12.476-10.172 22.665-22.682 22.665v0z" />
<glyph unicode="&#xe910;" glyph-name="weixin" d="M273.323 391.714c-15.906 5.12-31.181 10.82-46.455 17.818l-47.087-47.753-49.647-49.63v165.495c-24.832 26.112-42.65 56.661-53.453 89.139-6.366 20.361-10.189 41.353-10.189 63.625 0 140.663 142.575 254.601 318.225 254.601 148.275 0 273.067-80.845 308.053-190.942h10.155c19.115 0 38.178-1.263 56.713-3.174-33.809 146.381-188.416 257.741-374.921 257.741-210.654 0-381.867-142.558-381.867-318.225 0-64.922 23.535-125.372 63.642-176.282v-269.227l156.57 157.235c33.092-12.8 68.096-21.709 104.363-26.795-4.454 19.746-6.366 40.107-6.366 60.501v5.103c-16.538 2.526-32.461 6.315-47.735 10.769v0zM257.417 662.204c0-17.783 13.978-31.812 31.829-31.812 17.818 0 31.812 14.012 31.812 31.812 0 17.852-13.978 31.846-31.812 31.846-17.852 0-31.829-13.995-31.829-31.846v0zM448.341 662.204c0-17.783 13.978-31.812 31.829-31.812 17.818 0 31.829 14.012 31.829 31.812 0 17.852-14.012 31.846-31.829 31.846-17.852 0-31.829-13.995-31.829-31.846v0zM575.642 407.654c0-17.818 13.943-31.829 31.812-31.829 17.783 0 31.846 14.012 31.846 31.829s-14.046 31.812-31.829 31.812c-17.869 0-31.829-13.995-31.829-31.812v0zM766.583 407.654c0-17.818 13.943-31.829 31.795-31.829 17.818 0 31.846 14.012 31.846 31.829s-14.029 31.812-31.846 31.812c-17.852 0-31.795-13.995-31.795-31.812v0zM942.848 312.149c-10.82-23.518-27.972-44.544-48.947-62.396v-192.188l-132.403 132.403c-18.483-3.209-38.161-5.086-58.59-5.086-140.612 0-254.583 85.265-254.583 190.942 0 105.66 113.954 190.959 254.583 190.959 140.681 0 254.601-85.299 254.601-190.959 0-22.238-5.069-43.895-14.66-63.676v0zM957.508 219.238c40.090 41.353 63.659 93.542 63.659 150.869 0 136.858-138.121 248.218-309.316 248.218-170.598 0-308.685-111.36-308.685-248.218 0-137.472 138.086-248.866 308.685-248.866 17.783 0 34.321 1.229 51.507 3.209l194.15-194.133v288.922z" />
<glyph unicode="&#xe911;" glyph-name="mima" d="M880.708 888.013h-734.703c-77.892 0-142.985-65.707-142.985-144.93v-602.761c0-79.223 65.092-143.121 142.985-143.121h202.513c19.524 0 35.328 16.333 35.328 36.13 0 19.849-15.804 36.13-35.328 36.13h-202.513c-38.946 0-71.902 31.232-71.902 70.844v602.778c0 39.612 32.973 72.653 71.902 72.653h734.72c38.98 0 69.598-33.041 69.598-72.653v-602.761c0-39.612-30.618-70.844-69.598-70.844h-202.53c-19.524 0-35.294-16.282-35.294-36.13 0-19.797 15.787-36.13 35.294-36.13h202.513c77.909 0 140.698 63.898 140.698 143.121v602.743c0.017 79.206-62.771 144.93-140.698 144.93v0zM874.581 310.016v263.356c0 19.814-15.411 35.908-34.97 35.908-19.49 0-34.935-16.094-34.935-35.908v-226.731h-199.492c-19.473 0-35.294-15.667-35.294-35.55 0-19.814 15.838-35.499 35.294-35.499h235.52c19.524 0 33.877 14.626 33.877 34.423v0zM478.037 346.658h-89.481c-19.524 0-35.328-15.667-35.328-35.55 0-19.814 15.804-35.499 35.328-35.499h89.481c19.507 0 35.311 15.684 35.311 35.499 0.017 19.883-15.804 35.55-35.311 35.55v0zM266.121 346.658h-89.498c-19.524 0-35.328-15.667-35.328-35.55 0-19.814 15.804-35.499 35.328-35.499h89.498c19.49 0 35.311 15.684 35.311 35.499 0 19.883-15.821 35.55-35.311 35.55v0zM480.393 609.655h-89.498c-19.524 0-35.328-15.718-35.328-35.55 0-19.849 15.804-35.533 35.328-35.533h89.498c19.507 0 35.311 15.684 35.311 35.533 0.017 19.831-15.787 35.55-35.311 35.55v0zM605.184 538.59h89.498c19.558 0 35.294 15.684 35.294 35.533 0 19.831-15.735 35.55-35.294 35.55h-89.498c-19.473 0-35.294-15.718-35.294-35.55 0-19.849 15.821-35.533 35.294-35.533v0zM266.121 609.655h-89.498c-19.524 0-35.328-15.718-35.328-35.55 0-19.849 15.804-35.533 35.328-35.533h89.498c19.49 0 35.311 15.684 35.311 35.533 0 19.831-15.821 35.55-35.311 35.55v0z" />
<glyph unicode="&#xe912;" glyph-name="yanzhengma" d="M1010.449 653.227c-13.961 14.302-36.625 14.302-50.586 0l-261.188-267.947-141.38 144.998c-13.978 14.285-36.54 14.285-50.466 0-13.943-14.285-13.943-37.478 0-51.729l166.451-170.769c0.068-0.034 0.068-0.154 0.154-0.222 6.997-7.168 16.077-10.752 25.31-10.701 9.165-0.051 18.278 3.533 25.259 10.701 0.102 0.068 0.102 0.188 0.222 0.307l286.225 293.495c13.943 14.319 13.943 37.547 0 51.866v0zM392.073 565.948h-214.511c-19.746 0-35.738-16.401-35.738-36.659s15.991-36.659 35.738-36.659h214.494c19.712 0 35.721 16.401 35.721 36.659 0.017 20.241-15.991 36.659-35.703 36.659v0zM392.073 394.854h-214.511c-19.746 0-35.738-16.401-35.738-36.693 0-20.207 15.991-36.625 35.738-36.625h214.494c19.712 0 35.721 16.435 35.721 36.625 0.017 20.292-15.991 36.693-35.703 36.693v0zM701.85 235.861c-19.712 0-35.669-16.35-35.738-36.523v-48.913c0-40.465-8.192-48.879-47.633-48.879h-500.48c-39.475 0-47.667 8.414-47.667 48.879v586.581c0 40.516 8.175 48.879 47.667 48.879h500.48c39.441 0 47.633-8.38 47.633-48.879v-122.231c0-0.051 0-0.102 0-0.205 0-20.224 16.009-36.625 35.738-36.625 19.763 0 35.755 16.418 35.755 36.625 0 0.085-0.034 0.137-0.034 0.205h0.034v171.127c0 40.465-32.051 73.284-71.475 73.284h-595.797c-39.492 0-71.492-32.819-71.492-73.284v-684.356c0-40.465 32-73.25 71.492-73.25h595.78c39.441 0 71.475 32.785 71.475 73.25v97.792c-0.068 20.173-16.026 36.523-35.738 36.523v0z" />
<glyph unicode="&#xe913;" glyph-name="shouji" d="M733.303 955.767h-416.563c-59.034 0-116.105-64.461-116.105-124.655v-766.089c0-60.177 57.071-131.738 116.105-131.738h416.563c59.017 0 111.377 71.543 111.377 131.738v766.089c0 60.194-52.361 124.655-111.377 124.655zM771.157 46.882c0-32.836-1.621-36.574-33.86-36.574h-429.329c-32.188 0-29.099 3.738-29.099 36.574v189.355h492.288v-189.355zM771.157 311.979h-492.288v530.176c0 32.836 5.683 37.871 37.871 37.871h416.563c32.239 0 37.854-5.018 37.854-37.871v-530.176zM522.65 65.024c29.679 0 53.658 24.525 53.658 54.733s-23.979 54.733-53.658 54.733c-29.628 0-53.658-24.525-53.658-54.733s24.013-54.733 53.658-54.733z" />
<glyph unicode="&#xe914;" glyph-name="huiyuan" d="M676.745 404.070c85.931 53.538 143.189 147.285 143.189 254.106 0 166.11-138.138 301.278-307.917 301.278s-307.9-135.185-307.9-301.295c0-106.803 57.259-200.567 143.138-254.106-177.562-65.451-304.418-232.892-304.418-429.261 0-21.060 17.493-38.229 39.083-38.229 21.623 0 39.1 17.169 39.1 38.229 0 209.425 172.988 379.938 386.458 382.327 1.536-0.068 3.038-0.239 4.557-0.239s3.004 0.171 4.54 0.239c213.453-2.406 386.441-172.937 386.441-382.327 0-21.060 17.476-38.229 39.1-38.229 21.606 0 39.083 17.169 39.083 38.229-0.034 196.369-126.874 363.81-304.452 429.278v0zM282.3 658.159c0 123.921 103.066 224.751 229.717 224.751s229.717-100.847 229.717-224.751c0-122.419-100.659-222.174-225.178-224.495-1.536 0-3.021 0.205-4.54 0.205s-3.021-0.205-4.557-0.205c-124.518 2.406-225.161 102.076-225.161 224.495v0z" />
<glyph unicode="&#xe915;" glyph-name="chongzhika" d="M0 342.426v428.117c0 26.778 10.957 51.132 28.57 68.745h0.085c18.176 18.278 42.923 28.57 68.693 28.587h687.855c26.675 0 50.995-10.94 68.659-28.587l0.085-0.068c18.261-18.193 28.553-42.889 28.57-68.659v-49.835h44.8c25.805-0.034 50.534-10.359 68.745-28.655v0.068c18.278-18.21 28.57-42.957 28.604-68.762v-428.1c-0.034-25.788-10.308-50.517-28.604-68.676v-0.102c-18.21-18.278-42.957-28.57-68.745-28.57h-687.889c-53.692 0.154-97.178 43.657-97.331 97.348v49.835h-44.749c-25.805 0-50.534 10.291-68.779 28.57h0.085c-18.33 18.21-28.621 42.94-28.655 68.745v0zM187.614 579.721h791.518v43.657c0 13.722-5.495 26.88-15.241 36.557v0.085c-9.677 9.711-22.835 15.138-36.574 15.138h-687.889c-14.285 0-27.273-5.82-36.642-15.206h0.085c-9.745-9.677-15.206-22.869-15.241-36.591v-43.657h-0.017v0.017zM979.132 511.437h-791.518v-316.211c0.085-28.604 23.245-51.729 51.831-51.814h687.889c13.722 0 26.863 5.495 36.557 15.241v-0.085c9.745 9.694 15.241 22.903 15.241 36.642v316.228zM837.035 720.708v49.852c0 14.285-5.803 27.221-15.155 36.574l-0.102 0.068c-9.694 9.728-22.869 15.172-36.591 15.172h-687.838c-14.285 0-27.255-5.854-36.642-15.241h0.068c-9.728-9.677-15.223-22.835-15.258-36.574v-428.117c0-14.302 5.82-27.238 15.172-36.608h0.068c9.677-9.694 22.835-15.206 36.591-15.241h44.8v332.783c0 26.795 10.923 51.115 28.57 68.745h0.085c18.176 18.278 42.889 28.553 68.659 28.57l597.572 0.017z" />
<glyph unicode="&#xe916;" glyph-name="liwu" d="M908.493 756.617h-34.509c17.51 29.645 25.19 57.941 22.75 84.173-2.031 21.965-12.476 53.367-50.603 78.404-31.642 20.821-72.311 25.924-117.419 14.66-73.199-18.364-159.778-81.527-216.713-157.85-56.951 76.339-143.531 139.486-216.661 157.85-45.175 11.349-85.897 6.195-117.487-14.66-38.11-25.020-48.555-56.439-50.569-78.404-2.475-26.249 5.154-54.528 22.716-84.173h-34.509c-52.241 0-94.737-42.547-94.737-94.839v-122.146c0-41.353 27.273-77.892 66.731-90.163-3.755-10.377-5.717-21.111-5.717-31.983v-366.455c0-52.241 42.581-94.771 94.805-94.771h670.942c52.258 0 94.771 42.53 94.771 94.771v366.507c0 11.486-2.065 22.46-5.854 32.631 39.578 11.691 66.816 48.23 66.816 89.481v122.129c0 52.241-42.53 94.839-94.754 94.839zM847.514 23.808h-301.79v420.983h301.807c15.070 0 27.255-12.305 27.255-27.324v-366.438c-0.017-15.002-12.203-27.221-27.273-27.221zM582.895 756.617c47.991 55.347 111.002 98.85 162.15 111.684 26.573 6.656 48.316 4.83 64.051-5.547 16.708-10.974 19.712-20.787 20.361-28.177 2.662-27.136-26.419-63.727-40.175-77.961h-206.387zM935.697 661.76v-122.129c0-15.036-12.169-27.273-27.204-27.273h-362.769v176.691h362.786c15.019 0 27.187-12.254 27.187-27.29zM478.225 444.791v-421.001h-301.653c-15.087 0-27.29 12.237-27.29 27.238v366.455c0 15.019 12.203 27.324 27.29 27.324h301.653zM194.509 834.577c0.683 7.39 3.686 17.203 20.361 28.177 15.616 10.377 37.393 12.288 64.051 5.547 50.91-12.766 113.835-56.269 161.946-111.684h-206.251c-12.305 12.459-42.803 50.159-40.107 77.961zM88.218 661.76c0 15.036 12.169 27.29 27.255 27.29h362.735v-176.674h-362.718c-15.087 0-27.255 12.237-27.255 27.273v122.112z" />
</font>
</defs>
</svg>
